/* XPM */
static const char *const about32_xpm[] = {
/* columns rows colors chars-per-pixel */
"32 32 87 1 ",
"  c #173258",
". c #18345C",
"X c #21416F",
"o c #204072",
"O c #234D8A",
"+ c #395B8C",
"@ c #375D94",
"# c #395E94",
"$ c #3B6096",
"% c #3F669C",
"& c #466797",
"* c #40679D",
"= c #43699E",
"- c #496B9E",
"; c #52719B",
": c #466DA1",
"> c #486FA3",
", c #4C72A6",
"< c #4F75A8",
"1 c #5273A3",
"2 c #5B7AA6",
"3 c #5177A9",
"4 c #557BAC",
"5 c #597EAD",
"6 c #5A7FB0",
"7 c #5B80AE",
"8 c #5D82B2",
"9 c #6785AE",
"0 c #6A85AC",
"q c #6286B4",
"w c #6A87B0",
"e c #6489B7",
"r c #6E8CB6",
"t c #668BB8",
"y c #6A8EBB",
"u c #728DB4",
"i c #6D91BD",
"p c #7390B5",
"a c #7194BE",
"s c #7994BA",
"d c #7D9ABF",
"f c #7296C1",
"g c #7599C3",
"h c #7A9DC6",
"j c #7D9FC8",
"k c #7FA1C9",
"l c #8EA2BD",
"z c #839DC0",
"x c #86A1C4",
"c c #8EA5C5",
"v c #82A4CC",
"b c #8DA7C8",
"n c #90A7C4",
"m c #94A9C6",
"M c #98ABC3",
"N c #94ACCB",
"B c #9AAECA",
"V c #9CB0C7",
"C c #9BB2CF",
"Z c #8AABD1",
"A c #9FB5D1",
"S c #A2B5CD",
"D c #A7BACF",
"F c #A3B6D1",
"G c #A6BAD4",
"H c #AABCD3",
"J c #B8C3D0",
"K c #B3C5DC",
"L c #B7C8DE",
"P c #BDCADD",
"I c #BDCEE1",
"U c #C2CFE1",
"Y c #C5D2E3",
"T c #CAD7E7",
"R c #D2DBE7",
"E c #D5DDE9",
"W c #D7E0EB",
"Q c #DBE3ED",
"! c #E0E7F0",
"~ c #E6EBF2",
"^ c #E9EEF4",
"/ c #EEF1F6",
"( c #F2F4F7",
") c #F3F5F9",
"_ c #F7F9FB",
"` c #FBFCFC",
"' c None",
/* pixels */
"''''''''''''''''''''''''''''''''",
"''''''''''''''''''''''''''''''''",
"''''''''''''O@1w91@O''''''''''''",
"''''''''''&mR______RM=''''''''''",
"''''''''@S)_/LSccFL/_)S$''''''''",
"'''''''2~_Es=%====::sE_~2'''''''",
"''''''u()z%*=::>>,:>>=c))u''''''",
"'''''2)~w%=:>,5875<<,,:r^)2'''''",
"''''@~)w%::>33/``(p4<<,,r)~@''''",
"''''S_z*::,345/``_l5444<,c_F''''",
"'''&)E%:>,4458/``_nq8844<,W)='''",
"'''m_s*>,366qeaMMMhtee844,z_M'''",
"''OR/::>3688tyKIYKaiteq8633)EO''",
"''@_P*>,46qqtf)``_Vaftyq643U_@''",
"''1_S:>348eyff/``_Shhffeq63H_2''",
"''w_c:,46qtffh)``_Skhfyyq64B_w''",
"''w_b>348eefhk_``_Dvkgfie84C_w''",
"''1_F>3488yfgx)```DZkkfit84K_1''",
"''@_U>348effhv)``_HNvkhit88Y_$''",
"''OE/1348effkk_``)JZvkfite8(WO''",
"'''B_z358effhv)``_HZvhfie8N_B'''",
"'''=)W358effgk)``_HvkhaieqQ)-'''",
"''''G_N48e8fgh_``_SxkgiieF_H''''",
"''''$~)f688yig)```Shgaitx_^$''''",
"'''''2)^d8qyyfNJJJbgfyyx/)5'''''",
"''''''p_)C8qeyifffffiyG))s''''''",
"'''''''2~_QNyeyyiyyiBQ`^2'''''''",
"''''''''#H__)TKGGLT___H#''''''''",
"'''''''''.&BQ__``_`WB& '''''''''",
"''''''''''''o+;00;+o''''''''''''",
"''''''''''''''''''''''''''''''''",
"''''''''''''''''''''''''''''''''"
};
