/* XPM */
static const char *const gravitate32_xpm[] = {
/* columns rows colors chars-per-pixel */
"32 32 93 2 ",
"   c #044C04",
".  c #044908",
"X  c #084908",
"o  c #015602",
"O  c #045B04",
"+  c #0A500A",
"@  c #085A08",
"#  c #026102",
"$  c #006F00",
"%  c #086308",
"&  c #017F01",
"*  c #047C08",
"=  c #05044E",
"-  c #08044E",
";  c #06094A",
":  c #09084F",
">  c #020156",
",  c #0B0850",
"<  c #03045A",
"1  c #030261",
"2  c #00006F",
"3  c #00007F",
"4  c #040A7B",
"5  c #4A034D",
"6  c #4C094C",
"7  c #550156",
"8  c #500B50",
"9  c #5C035C",
"0  c #5C0060",
"q  c #610261",
"w  c #6F006F",
"e  c #7E017F",
"r  c #79087A",
"t  c #5A5F5C",
"y  c #5D5862",
"u  c #605D62",
"i  c #5E6060",
"p  c #626264",
"a  c #6B6B6E",
"s  c #6E6E70",
"d  c #747877",
"f  c #76767B",
"g  c #78747B",
"h  c #77797A",
"j  c #79797C",
"k  c #048104",
"l  c #008F00",
"z  c #0B840B",
"x  c #019E01",
"c  c #118711",
"v  c #02A502",
"b  c #03AA03",
"n  c #08A308",
"m  c #08AC08",
"M  c #05B305",
"N  c #09B60A",
"B  c #0CB90C",
"V  c #050481",
"C  c #090581",
"Z  c #090A82",
"A  c #00008F",
"S  c #01019E",
"D  c #0202A5",
"F  c #0201A9",
"G  c #0505B3",
"H  c #0809B5",
"J  c #0A0AB9",
"K  c #7E0380",
"L  c #800581",
"P  c #820982",
"I  c #8F008F",
"U  c #9E009E",
"Y  c #A501A6",
"T  c #A700A8",
"R  c #A901A9",
"E  c #B304B4",
"W  c #8C8C8F",
"Q  c #8C8C90",
"!  c #9E9DA3",
"~  c #A09EA4",
"^  c #9FA2A3",
"/  c #A0A0A4",
"(  c #B4B4B8",
")  c #C6C6CB",
"_  c #C9C9CE",
"`  c #CBCBD0",
"'  c #D1D2D6",
"]  c #D4D4DA",
"[  c #E1DFE6",
"{  c #DFE0E4",
"}  c #E1E1E7",
"|  c #E7E7EC",
" . c None",
/* pixels */
" . . . . . . . . . . . . . . . .| ] ` / B m n z  . . . . . . . .",
" . . . . . . . . . . . . . . . .] ( / h v l & %  . . . . . . . .",
" . . . . . . . . . . . . . . . .` ^ W a v & $ O  . . . . . . . .",
" . . . . . . . . . . . . . . . .^ h a t k # o    . . . . . . . .",
" . . . . . . . . . . . .B m n z M b x k M v x k B m n c  . . . .",
" . . . . . . . . . . . .v l k # b l k # v l & # v l k %  . . . .",
" . . . . . . . . . . . .v k $ o v k $ o v & $ o v & $ @  . . . .",
" . . . . . . . . . . . .k O o   & O o   & O o   k O o +  . . . .",
" . . . . . . . .| ] ` / M v v * R Y U K H D S Z { ` ) ^  . . . .",
" . . . . . . . .] ( / h v l & O R I K 0 D A 3 1 ] ( / j  . . . .",
" . . . . . . . ._ / Q a v & $ o U K w 7 S 3 2 < _ ^ W s  . . . .",
" . . . . . . . ./ h s t k O o   K 0 7 5 V < > = ^ f a i  . . . .",
"J F D 4 B m n z } ] ) / } ' ) ^ } ' ) ! E T U K H D S 4 N m n z ",
"F A 3 < v l & % ] ( / j ] ( / h ] ( ~ g R I K 0 D A 3 < v l k % ",
"D V 2 > x k $ O ) / W a ) / W s ) ! W a U K w 7 S 3 2 > x k $ O ",
"Z 1 < ; k # o   ^ f a u / h a i ! g a y L q 7 5 V 1 > ; k # o X ",
" . . . .N v v * E Y U r M v x * G F S C E R U e E R U r M v x z ",
" . . . .b l & @ Y I e 9 b l & O D A 3 1 R I e q R I e 9 v l & % ",
" . . . .n & $ o U L w 7 x & $ o S V 2 > U e w 7 U e w 8 x & $ O ",
" . . . .k O o   K 9 7 5 k O o . 3 < > - e q 7 5 L q 7 6 * % o X ",
" . . . .J D S 3 G F S C { ] ) ! E R U K E R U P } ' _ /  . . . .",
" . . . .F A 3 1 F A V 1 ] ( ! g R I L q R I L q ] ( ~ j  . . . .",
" . . . .D 3 2 > S V 2 < ) ! W a U e w 7 U L w 9 ) / Q s  . . . .",
" . . . .Z 1 > = V < > = ! f a y K q 7 5 L q 7 8 ~ j a p  . . . .",
" . . . . . . . .E R U r G F S V G F S Z [ ' ) ~  . . . . . . . .",
" . . . . . . . .R I K 0 F A 3 1 F A 3 1 ] ( ~ j  . . . . . . . .",
" . . . . . . . .Y e w 7 D 3 2 > S 3 2 < ) ~ Q s  . . . . . . . .",
" . . . . . . . .P q 9 6 V 1 > = C < > , / j s p  . . . . . . . .",
" . . . . . . . . . . . .E R U e E T U L  . . . . . . . . . . . .",
" . . . . . . . . . . . .R I e q R I e q  . . . . . . . . . . . .",
" . . . . . . . . . . . .Y e w 7 U e w 9  . . . . . . . . . . . .",
" . . . . . . . . . . . .L 9 7 5 L 9 7 6  . . . . . . . . . . . ."
};
