/* XPM */
static const char *const help32_xpm[] = {
/* columns rows colors chars-per-pixel */
"32 32 99 2 ",
"   c #173258",
".  c #18345C",
"X  c #21416F",
"o  c #204072",
"O  c #234D8A",
"+  c #395B8C",
"@  c #375D94",
"#  c #395E94",
"$  c #3B6096",
"%  c #3F669C",
"&  c #466797",
"*  c #40679D",
"=  c #43699E",
"-  c #496B9E",
";  c #52719B",
":  c #466DA1",
">  c #486FA3",
",  c #4C72A6",
"<  c #4F75A8",
"1  c #5273A3",
"2  c #5B7AA6",
"3  c #5177A9",
"4  c #557BAC",
"5  c #597DAD",
"6  c #5A7FB0",
"7  c #5D82B2",
"8  c #6785AE",
"9  c #6A85AC",
"0  c #6286B4",
"q  c #6A87B0",
"w  c #6489B7",
"e  c #6D8CB6",
"r  c #668BB8",
"t  c #6A8EBB",
"y  c #728DB4",
"u  c #6D91BD",
"i  c #7194BE",
"p  c #7995BA",
"a  c #7C99BD",
"s  c #7296C1",
"d  c #7599C3",
"f  c #7A9DC6",
"g  c #7D9FC8",
"h  c #7EA1C9",
"j  c #87A0BF",
"k  c #88A1BF",
"l  c #839DC0",
"z  c #86A2C5",
"x  c #8CA5C5",
"c  c #8FA8C6",
"v  c #83A5CC",
"b  c #8BA7CB",
"n  c #90A7C7",
"m  c #94A9C6",
"M  c #93ACCB",
"N  c #9AAECA",
"B  c #9BB2CF",
"V  c #8AABD1",
"C  c #8FB0D5",
"Z  c #91B2D6",
"A  c #9CB5D2",
"S  c #97B7DB",
"D  c #98B9DC",
"F  c #A3B5CF",
"G  c #B4BECB",
"H  c #A2B6D1",
"J  c #A4BAD5",
"K  c #AABCD4",
"L  c #A5BCD8",
"P  c #AEC4DD",
"I  c #B3C6DD",
"U  c #B6C8DF",
"Y  c #BDCBDD",
"T  c #B7CAE0",
"R  c #BFCFE0",
"E  c #C5CBD3",
"W  c #C2CFDF",
"Q  c #CBD2D9",
"!  c #D1D6DC",
"~  c #D5D8DA",
"^  c #C2CFE1",
"/  c #C5D2E3",
"(  c #CAD7E7",
")  c #D2DBE7",
"_  c #D5DDE9",
"`  c #D7E0EB",
"'  c #DAE2ED",
"]  c #E5E5E6",
"[  c #E7E9EC",
"{  c #EBEBEB",
"}  c #E0E7F0",
"|  c #E6EBF2",
" . c #E9EDF3",
".. c #EEF1F6",
"X. c #F4F4F5",
"o. c #F3F6F9",
"O. c #F7F9FB",
"+. c #FCFDFD",
"@. c None",
/* pixels */
"@.@.@.@.@.@.@.@.@.@.@.@.@.@.@.@.@.@.@.@.@.@.@.@.@.@.@.@.@.@.@.@.",
"@.@.@.@.@.@.@.@.@.@.@.@.@.@.@.@.@.@.@.@.@.@.@.@.@.@.@.@.@.@.@.@.",
"@.@.@.@.@.@.@.@.@.@.@.@.O @ 1 8 8 1 @ O @.@.@.@.@.@.@.@.@.@.@.@.",
"@.@.@.@.@.@.@.@.@.@.& m _ O.O.O.O.O.O.) m - @.@.@.@.@.@.@.@.@.@.",
"@.@.@.@.@.@.@.@.@ F o.O...Y F x x H Y ..O.o.H $ @.@.@.@.@.@.@.@.",
"@.@.@.@.@.@.@.2 | O._ p = % * = = = : : p _ O.| 2 @.@.@.@.@.@.@.",
"@.@.@.@.@.@.y X.X.l % % = : > > , , : : : : x X.o.y @.@.@.@.@.@.",
"@.@.@.@.@.2 o.| 0 % = : > , < 3 < < < , , , : e  .X.2 @.@.@.@.@.",
"@.@.@.@.@ | o.q * : : 0 H ' X.+.O. .W w 3 < , , e o.| @ @.@.@.@.",
"@.@.@.@.F O.l * : : , Y +.+.+.+.+.+.+.+.a 4 3 , , c O.H @.@.@.@.",
"@.@.@.= o._ % : > , 3 ^ +.+.X.X.+.+.+.+.[ 7 5 4 , , ` o.- @.@.@.",
"@.@.@.m o.p * > , 3 5 W [ G z p B +.+.+.O.p 7 5 4 , l O.m @.@.@.",
"@.@.O _  .: : > 3 5 7 t p t t s i O.+.+.O.k 0 7 6 4 3 .._ O @.@.",
"@.@.@ O.Y = > < 4 6 7 w t u s d K +.+.+.{ f r 0 6 4 < ^ O.$ @.@.",
"@.@.1 O.F : > 3 5 7 w t s s f L +.+.+.+.E s t w 7 6 4 K o.2 @.@.",
"@.@.9 O.n : , 3 6 7 r s s f L O.+.+.+.~ z s s t 0 7 4 N O.q @.@.",
"@.@.8 O.n > 3 4 7 0 t s d V +.+.+.+.~ M h f s t r 7 5 B O.q @.@.",
"@.@.1 O.H > < 4 7 r t s f P +.+.+.] A V v f s u r 7 6 K O.1 @.@.",
"@.@.@ O.^ > 3 4 7 r t d g L { { { Q Z V v h f u r 0 6 / O.$ @.@.",
"@.@.O _ o., < 5 7 r u s f v V Z D D Z V v f d u r 0 7 o._ O @.@.",
"@.@.@.N O.l 3 5 7 r t s f P o.O.o.R C V v f s u r 0 c O.B @.@.@.",
"@.@.@.- X.' 3 4 7 0 t s f T +.+.+.! V v h f s u w 7 } O.- @.@.@.",
"@.@.@.@.J O.M 4 7 0 r s f I +.+.+.! v v f f u t 0 A O.K @.@.@.@.",
"@.@.@.@.$  .o.i 5 7 w t s K X.X.X.Q v f f s t r l O. .$ @.@.@.@.",
"@.@.@.@.@.2 o. .f 5 0 r t s x x x z f d s u t z ..O.5 @.@.@.@.@.",
"@.@.@.@.@.@.p o.o.A 0 0 r t u i s s s s t r J o.o.p @.@.@.@.@.@.",
"@.@.@.@.@.@.@.2  .O.' M r r t t u u t u N } +. .2 @.@.@.@.@.@.@.",
"@.@.@.@.@.@.@.@.+ K O.O.o.( U J J U ( O.O.O.K # @.@.@.@.@.@.@.@.",
"@.@.@.@.@.@.@.@.@.. & N ' O.+.O.O.O.+.` N &   @.@.@.@.@.@.@.@.@.",
"@.@.@.@.@.@.@.@.@.@.@.@.o + ; 9 9 ; + X @.@.@.@.@.@.@.@.@.@.@.@.",
"@.@.@.@.@.@.@.@.@.@.@.@.@.@.@.@.@.@.@.@.@.@.@.@.@.@.@.@.@.@.@.@.",
"@.@.@.@.@.@.@.@.@.@.@.@.@.@.@.@.@.@.@.@.@.@.@.@.@.@.@.@.@.@.@.@."
};
