/* XPM */
static const char *const new32_xpm[] = {
/* columns rows colors chars-per-pixel */
"32 32 190 2 ",
"   c #034C03",
".  c #015601",
"X  c #045B04",
"o  c #0A500A",
"O  c #085A08",
"+  c #114E06",
"@  c #036103",
"#  c #006F00",
"$  c #086308",
"%  c #017F01",
"&  c #366E02",
"*  c #3F4130",
"=  c #597E08",
"-  c #7E5C27",
";  c #07054D",
":  c #020156",
">  c #03045A",
",  c #0B0955",
"<  c #1D1E43",
"1  c #26255F",
"2  c #030261",
"3  c #00006F",
"4  c #0D0D64",
"5  c #00007F",
"6  c #040A7B",
"7  c #141479",
"8  c #2A2C69",
"9  c #36356D",
"0  c #4B034E",
"q  c #4C094C",
"w  c #550156",
"e  c #5C035C",
"r  c #500B50",
"t  c #5E1748",
"y  c #5C0060",
"u  c #610261",
"i  c #6F006F",
"p  c #7E017F",
"a  c #79087A",
"s  c #454447",
"d  c #595F5B",
"f  c #726F4F",
"g  c #7B785B",
"h  c #43426F",
"j  c #5D5862",
"k  c #444178",
"l  c #626264",
"z  c #6A6B6E",
"x  c #6E6E71",
"c  c #76767B",
"v  c #7A7A7D",
"b  c #767779",
"n  c #885734",
"m  c #9A6A35",
"M  c #9C2E6F",
"N  c #995944",
"B  c #AF674C",
"V  c #048104",
"C  c #008F00",
"Z  c #0B840B",
"A  c #009E01",
"S  c #118711",
"D  c #148004",
"F  c #3F8805",
"G  c #02A602",
"H  c #03AA03",
"J  c #08A808",
"K  c #04B304",
"L  c #0AB80B",
"P  c #1CA007",
"I  c #559404",
"U  c #679807",
"Y  c #779A09",
"T  c #4CAE05",
"R  c #78B909",
"E  c #6FA907",
"W  c #5DC507",
"Q  c #78D20B",
"!  c #85B70A",
"~  c #95B10E",
"^  c #B6B30A",
"/  c #B4AF0B",
"(  c #BA9130",
")  c #B38831",
"_  c #C2BC0E",
"`  c #C19E2D",
"'  c #C38E3A",
"]  c #D9B134",
"[  c #E6BD36",
"{  c #8DC00D",
"}  c #92C40C",
"|  c #9ACA0C",
" . c #99D40D",
".. c #AAC610",
"X. c #B4D612",
"o. c #A8D213",
"O. c #ADE114",
"+. c #C8DA16",
"@. c #CEC50A",
"#. c #C8E417",
"$. c #D7E819",
"%. c #E3EA1E",
"&. c #FEF415",
"*. c #FFF51C",
"=. c #DEC529",
"-. c #F3DC2F",
";. c #F4DA37",
":. c #E3CE2D",
">. c #DFE029",
",. c #E6EB2C",
"<. c #E7E826",
"1. c #FEF423",
"2. c #FFF62C",
"3. c #E8EA39",
"4. c #FFF63C",
"5. c #FEF435",
"6. c #F4EB34",
"7. c #A09B5F",
"8. c #A4A25F",
"9. c #9F9E7C",
"0. c #989869",
"q. c #A09F69",
"w. c #AAA57A",
"e. c #C28641",
"r. c #E6B141",
"t. c #D5D04D",
"y. c #E8EB43",
"u. c #EAE747",
"i. c #F3EB44",
"p. c #F5ED4D",
"a. c #FFF747",
"s. c #FFF74B",
"d. c #EAEE55",
"f. c #F3EC58",
"g. c #FBF459",
"h. c #EEEF68",
"j. c #ECF260",
"k. c #FBF465",
"l. c #FFF966",
"z. c #FBF574",
"x. c #F8F57A",
"c. c #EFF577",
"v. c #050481",
"b. c #090A82",
"n. c #00008F",
"m. c #090580",
"M. c #01019E",
"N. c #0202A5",
"B. c #0202A9",
"V. c #0504B3",
"C. c #090AB7",
"Z. c #7E0380",
"A. c #800581",
"S. c #820982",
"D. c #8F008F",
"F. c #9E009E",
"G. c #9D0797",
"H. c #A71694",
"J. c #A501A6",
"K. c #A901A9",
"L. c #A700A8",
"P. c #B304B4",
"I. c #8C8C8F",
"U. c #8C8C90",
"Y. c #9F9EA3",
"T. c #9FA2A3",
"R. c #A0A0A4",
"E. c #AFAFA4",
"W. c #B4B4B8",
"Q. c #C6C68F",
"!. c #FBF582",
"~. c #FBF68B",
"^. c #F2F48F",
"/. c #FAF798",
"(. c #D3D1A0",
"). c #FAF6A4",
"_. c #FDF9B4",
"`. c #F9F9B7",
"'. c #C6C6CC",
"]. c #C9C9CE",
"[. c #D4D4D9",
"{. c #D1D1D6",
"}. c #CBCBD0",
"|. c #FDFBC9",
" X c #FDFBD6",
".X c #E1DFE6",
"XX c #DEE0E4",
"oX c #E4E3EA",
"OX c #FEFDE9",
"+X c None",
/* pixels */
"+X+X+X+X+X+X+X+XZ J J L T.}.[.oX+X+X+X+X+X+X+X+X+X+X+X+X+X+X+X+X",
"+X+X+X+X+X+X+X+X$ % C G b R.W.[.+X+X+X+X+X+X+X+X+X+X+X+X+X+X+X+X",
"+X+X+X+X+X+X+X+XX # % G z I.T.}.+X+X+X+X+X+X+X+X+X+X+X+X+X+X+X+X",
"+X+X+X+X+X+X+X+Xo . @ V d z b R.+X+X^ &.&.@.+X+X+X+X+X+X+X+X+X+X",
"+X+X+X+XS J J L V A G K V A G K Z P } O.1.*._ +X+X+X+X+X+X+X+X+X",
"+X+X+X+X$ % C G @ V C G @ % C G # I +.#.1.*.*./ +X+X+X+X+X+X+X+X",
"+X+X+X+XO # V G . # % A . # V G . ~ <.,.4.4.2.1.@.^ ^ +X+X+X+X+X",
"+X+X+X+Xo . X %   . X %   . @ & I >.u.p.l.l.g.a.2.1.*.&.+X+X+X+X",
"+X+X+X+XT.'.{.XXb.M.N.V.a M B ` ,.y.h.c.~.~.!.z.s.2.*.*.+X+X+X+X",
"+X+X+X+Xv R.W.{.2 5 7 9 n ' ] ;.3.d.c.^._._.).~.l.4.*.&.&.+X+X+X",
"+X+X+X+Xx I.R.'.> 4 s h m ' ] -.u.h.^.`. X X`./.l.s.1.*.&.+X+X+X",
"+X+X+X+Xl z c Y., > , s m ( ] -.u.h./.`.OXOX`./.z.s.1.*.^ +X+X+X",
"Z J H L 6 M.N.V.a F.L.P.7.t.i.5.f.z./._.|. X_./.h.3.%.o.8 N.C.C.",
"$ % C G > v.n.B.y Z.D.K.v q.t.5.y.k.!./.).)./.!.d.,.$.! > 5 n.N.",
"O # % A : 3 5 M.w i Z.F.x U.I.t.6.i.k.x.!.!.z.k.3.<.+.| < 3 5 M.",
"o . X V ; : > v.0 w y A.j x v 8.:.6.i.g.f.f.f.i.<.+...{ * > 2 b.",
"Z A G K a F.J.P.Z.F.J.P.m.M.B.h o.#.$.<.;.;.;.;.+.X. .Q +X+X+X+X",
"$ % C G e p D.L.y Z.D.J.2 v.n.9 ~ ..X.#.=.=.:.r...~ Q W +X+X+X+X",
"O # % A r i A.J.w i M F.: 3 5 8 Y ! |  .` ) N B Y E T T +X+X+X+X",
"o . @ % q w y Z.0 w u A.; : : 8 = U E R - t e p + & = & +X+X+X+X",
"+X+X+X+XT.'.{..XZ.J.K.P.A.F.L.H.9.(.Q.Q.m.M.B.V.v.M.B.C.+X+X+X+X",
"+X+X+X+Xv T.W.[.y Z.D.K.u A.D.H.g 0.E.{.2 5 n.N.2 v.n.B.+X+X+X+X",
"+X+X+X+Xx U.T.'.e i Z.F.w i p G.f I.Y.'.> 3 5 N.: 3 v.N.+X+X+X+X",
"+X+X+X+Xl x v T.r e u Z.0 w e A.j z c Y.; : > v.; : 2 b.+X+X+X+X",
"+X+X+X+X+X+X+X+XY.'.{..Xb.N.B.V.v.M.B.V.a F.K.P.+X+X+X+X+X+X+X+X",
"+X+X+X+X+X+X+X+Xv T.W.{.2 v.n.N.2 5 n.N.y Z.D.K.+X+X+X+X+X+X+X+X",
"+X+X+X+X+X+X+X+Xx U.Y.}.> 3 5 M.: 3 v.N.w i A.J.+X+X+X+X+X+X+X+X",
"+X+X+X+X+X+X+X+Xl x v R., : 2 5 ; : 2 v.q e u S.+X+X+X+X+X+X+X+X",
"+X+X+X+X+X+X+X+X+X+X+X+XZ.F.J.P.Z.F.J.P.+X+X+X+X+X+X+X+X+X+X+X+X",
"+X+X+X+X+X+X+X+X+X+X+X+Xy Z.D.J.u p D.K.+X+X+X+X+X+X+X+X+X+X+X+X",
"+X+X+X+X+X+X+X+X+X+X+X+Xy i M F.w i A.J.+X+X+X+X+X+X+X+X+X+X+X+X",
"+X+X+X+X+X+X+X+X+X+X+X+Xr r e p 0 w e p +X+X+X+X+X+X+X+X+X+X+X+X"
};
