/* XPM */
static const char *const options32_xpm[] = {
/* columns rows colors chars-per-pixel */
"32 32 113 2 ",
"   c #1E4073",
".  c #7A7C78",
"X  c #244C84",
"o  c #244E8B",
"O  c #26518D",
"+  c #2C548D",
"@  c #3B5E8C",
"#  c #2F5A93",
"$  c #335A93",
"%  c #3A5F91",
"&  c #3E618E",
"*  c #3C6395",
"=  c #3B639B",
"-  c #3E69A4",
";  c #47638A",
":  c #42699C",
">  c #426CA3",
",  c #496FA2",
"<  c #4C73A6",
"1  c #4570AA",
"2  c #4A74AC",
"3  c #5075A7",
"4  c #5177A9",
"5  c #5179AE",
"6  c #4373B1",
"7  c #4B77B0",
"8  c #4D7AB5",
"9  c #537EB4",
"0  c #5A80B3",
"q  c #5A85BC",
"w  c #6A81A0",
"e  c #778EAD",
"r  c #638ABC",
"t  c #6C91BF",
"y  c #6D94C5",
"u  c #7296C5",
"i  c #7498C7",
"p  c #749AC9",
"a  c #7B9FCC",
"s  c #868882",
"d  c #8E8F8B",
"f  c #90928D",
"g  c #949591",
"h  c #969994",
"j  c #989995",
"k  c #949A98",
"l  c #9B9D99",
"z  c #9FA09C",
"x  c #A0A19E",
"c  c #8E96A5",
"v  c #9097A2",
"b  c #9299A6",
"n  c #939BA8",
"m  c #989FAA",
"M  c #97A0AC",
"N  c #9BA1AC",
"B  c #9FA9B7",
"V  c #A4A6A2",
"C  c #A7A8A4",
"Z  c #A9AAA7",
"A  c #ADAEAB",
"S  c #AFB0AD",
"D  c #B1B2AF",
"F  c #A6ACB5",
"G  c #A6AEBA",
"H  c #A9B1BB",
"J  c #B5B6B4",
"K  c #B6B9B5",
"L  c #B8BAB7",
"P  c #BDBDBB",
"I  c #BFC0BE",
"U  c #C0C1BD",
"Y  c #819EC6",
"T  c #81A0C7",
"R  c #8CAACF",
"E  c #93AECF",
"W  c #83A6D2",
"Q  c #87A8D2",
"!  c #92AFD3",
"~  c #97B1D1",
"^  c #AFB7C0",
"/  c #AFB9C5",
"(  c #B4BDC6",
")  c #B8BDC5",
"_  c #B5BEC9",
"`  c #A6BEDC",
"'  c #BDC2C7",
"]  c #BDC2C9",
"[  c #BAC5D1",
"{  c #BDC9D5",
"}  c #B1C6DF",
"|  c #C2C3C2",
" . c #C6C8C5",
".. c #C9C9C7",
"X. c #C1C5CB",
"o. c #C5CACF",
"O. c #CCCDCC",
"+. c #C7CCD1",
"@. c #C2CEDB",
"#. c #C3D0DD",
"$. c #D4D4D4",
"%. c #D8D8D7",
"&. c #DCDCDC",
"*. c #C8D7EA",
"=. c #CCD9EA",
"-. c #DFE0E2",
";. c #E3E3E3",
":. c #E7E8E7",
">. c #E5E6E8",
",. c #ECECEC",
"<. c #F4F4F4",
"1. c #F8F8F8",
"2. c None",
/* pixels */
"2.2.2.2.2.2.2.2.2.2.2.2.2.2.2.2.2.2.2.2.2.2.2.2.2.2.2.2.2.2.2.2.",
"2.2.2.2.2.2.2.2.2.2.2.2.2.2.2.2.2.2.2.2.2.2.2.2.2.2.2.2.2.2.2.2.",
"2.2.2.2.2.2.2.2.2.2.2.2.2.2.2.2.2.2.2.2.2.2.2.2.2.2.2.2.2.2.2.2.",
"2.2.2.2.2.2.2.2.2.2.g g g 2.2.2.2.2.2.2.2.2.2.2.2.2.2.2.2.2.2.2.",
"2.2.2.2.2.2.2.2.2.j :.;.%.V 2.2.2.2.2.2.2.2.2.2.2.c n 2.2.2.2.2.",
"2.2.2.2.2.2.2.2.2.2.A :.&.:.D 2.2.2.2.2.2.2.2.2.n / @.G v 2.2.2.",
"2.2.2.2.2.2.2.2.2.2.2.Z ;.&.;.j 2.2.2.2.2.2.2.b [ *.*.@.F 2.2.2.",
"2.2.2.2.2.2.2.2.2.2.2.f &.&.;.A 2.2.2.2.2.2.m @.#.{ { { c 2.2.2.",
"2.2.2.2.2.g 2.2.2.2.2.2.&.:.,.U 2.2.2.2.2.2.H [ [ [ ] M 2.2.2.2.",
"2.2.2.2.V :.l 2.2.2.2.l ,.,.,.L 2.2.2.2.2.2.G _ / / G 2.2.2.2.2.",
"2.2.2.2.C ;.&.l g 2.x &.&.&.;.x 2.2.2.2.2.n ] ] ^ H c 2.2.2.2.2.",
"2.2.2.2.l :.;.,.;.%.:.:.-.;.;.&.j 2.2.2.n ] ) n 2.2.2.2.2.2.2.2.",
"2.2.2.2.2.| ,.,.,.,.,.,.,.&.$.;.&.l 2.b ] ] m 2.2.2.2.2.2.2.2.2.",
"2.2.2.2.2.j O.1.1.1.1.<.<.-.,.&.,.&.c X.+.N 2.2.2.2.2.2.2.2.2.2.",
"2.2.2.2.2.2.2.x P ..J l D 1.-.,.&.F X.o.N 2.2.2.2.2.2.2.2.2.2.2.",
"2.2.2.2.2.2.2.2.2.2.2.2.2.D <.-.F ' o.F k 2.2.2.2.2.2.2.2.2.2.2.",
"2.2.2.2.2.2.2.2.2.2.2.2.2.; N G ' o.F :...2.2.2.2.2.2.2.2.2.2.2.",
"2.2.2.2.2.2.2.2.2.2.2.o 3 a < e +.F ;.:.1...2.2.2.2.2.2.2.2.2.2.",
"2.2.2.2.2.2.2.2.2.2.2.0 a ` r < w -.;.,.;.,.P 2.2.2.2.2.2.2.2.2.",
"2.2.2.2.2.2.2.2.2.2.3 y q 9 2 0 $ L ,.&.:.;.,.J 2.2.2.2.2.2.2.2.",
"2.2.2.2.2.2.2.2.2.< y q t ; - 9 o 2.L :.&.;.;.:.S 2.2.2.2.2.2.2.",
"2.2.2.2.2.2.2.o 5 y i T @ : 5 = 2.2.2.P ;.&.&.&.;.Z 2.2.2.2.2.2.",
"2.2.2.2.2.2.o r p ~ E @ = 5 = 2.2.2.2.2.P &.%.&.&.&.V 2.2.2.2.2.",
"2.2.2.2.X $ u Q } ~ @ * 2 = 2.2.2.2.2.2.2.P &.%.%.$.%.V 2.2.2.2.",
"2.2.2.2.> W ` =.R * * 2 - 2.2.2.2.2.2.2.2.2.P %.O.P L $.g 2.2.2.",
"2.2.2.O Q *.=.y = % 1 < o 2.2.2.2.2.2.2.2.2.2.I O.J | O.l 2.2.2.",
"2.2.2.O y y 9 < @ - 9 O 2.2.2.2.2.2.2.2.2.2.2.s | | P O.g 2.2.2.",
"2.2.2.2.% y 7 * - 8 $ 2.2.2.2.2.2.2.2.2.2.2.2.2.. x C d 2.2.2.2.",
"2.2.2.2.2.: 9 > 6 7   2.2.2.2.2.2.2.2.2.2.2.2.2.2.2.2.2.2.2.2.2.",
"2.2.2.2.2.2.$ > = X 2.2.2.2.2.2.2.2.2.2.2.2.2.2.2.2.2.2.2.2.2.2.",
"2.2.2.2.2.2.2.2.2.2.2.2.2.2.2.2.2.2.2.2.2.2.2.2.2.2.2.2.2.2.2.2.",
"2.2.2.2.2.2.2.2.2.2.2.2.2.2.2.2.2.2.2.2.2.2.2.2.2.2.2.2.2.2.2.2."
};
