/* XPM */
static const char *const quit32_xpm[] = {
/* columns rows colors chars-per-pixel */
"32 32 108 2 ",
"   c #B60101",
".  c #BB0303",
"X  c #BD0808",
"o  c #BE1E16",
"O  c #C70909",
"+  c #CC0A0A",
"@  c #D30C0C",
"#  c #DB0E0E",
"$  c #D9100F",
"%  c #CF1212",
"&  c #C11E16",
"*  c #CB1B16",
"=  c #C21E18",
"-  c #D31313",
";  c #DD1212",
":  c #D61F1D",
">  c #DA1C1C",
",  c #E10F0F",
"<  c #E41111",
"1  c #E71F1F",
"2  c #EA1C1C",
"3  c #C5201B",
"4  c #CA211E",
"5  c #CE2422",
"6  c #CE2D23",
"7  c #D32727",
"8  c #DA2424",
"9  c #D12E24",
"0  c #D82F27",
"q  c #CD3A2C",
"w  c #DD302A",
"e  c #D13C2E",
"r  c #D53E31",
"t  c #D93F33",
"y  c #DF3F3F",
"u  c #E52424",
"i  c #E92627",
"p  c #E22E2E",
"a  c #E82828",
"s  c #E43434",
"d  c #EA3737",
"f  c #E53E3F",
"g  c #E83C3C",
"h  c #D74034",
"j  c #DD4136",
"k  c #E14137",
"l  c #E5433B",
"z  c #EB453E",
"x  c #D74D4D",
"c  c #DD4E4E",
"v  c #DC5252",
"b  c #E64442",
"n  c #EE4545",
"m  c #E74A40",
"M  c #EC4845",
"N  c #E74E4E",
"B  c #EC4B4B",
"V  c #F44646",
"C  c #F94747",
"Z  c #F34B4B",
"A  c #FD4949",
"S  c #EC534B",
"D  c #F3534D",
"F  c #FD504E",
"G  c #ED4F50",
"H  c #F04F50",
"J  c #E45555",
"K  c #EC5252",
"L  c #F45552",
"P  c #FA5451",
"I  c #FE5956",
"U  c #FF5A58",
"Y  c #DE7676",
"T  c #E76767",
"R  c #E96262",
"E  c #EF6868",
"W  c #F16464",
"Q  c #F56969",
"!  c #E07777",
"~  c #EE7273",
"^  c #F27272",
"/  c #F07979",
"(  c #E38383",
")  c #EE8282",
"_  c #E48D8D",
"`  c #EA8D8D",
"'  c #F28484",
"]  c #EB9797",
"[  c #E49B9B",
"{  c #E89F9F",
"}  c #F39999",
"|  c #E6A0A0",
" . c #EDA6A6",
".. c #EFACAC",
"X. c #F5A4A4",
"o. c #F1ABAB",
"O. c #E9B4B4",
"+. c #EBBABA",
"@. c #F1B4B5",
"#. c #EAC4C4",
"$. c #EEC9C9",
"%. c #F0C9CA",
"&. c #EDD5D5",
"*. c #EFDEDE",
"=. c #F0DFDF",
"-. c #EEE2E2",
";. c #EFEFEF",
":. c None",
/* pixels */
":.:.:.:.:.:.:.:.:.:.:.:.:.:.:.:.:.:.:.:.:.:.:.:.:.:.:.:.:.:.:.:.",
":.:.:.:.:.:.:.. . . . O . . . . O . . . . . . . . :.:.:.:.:.:.:.",
":.:.:.:.. 7 M P U U U U U U U U I U U U I I I I F M 4 . :.:.:.:.",
":.:.:.X n P A A A A A A A A A A A A A A A A C A A C F b X :.:.:.",
":.:.. n A A A A A A A A A A A A A A A A C C C C C C C C l . :.:.",
":.:.7 P A A A A A A A A A A F X.X.A C A C C C C C C V Z D 5 :.:.",
":.:.M A A A A A A A A A A A } ;.;.} A C C C C C V V V V V l :.:.",
":.. I A A A A A A A C C C C o.;.;...Z V V Z V V V V V V V B . :.",
":.. I A A A C A C C C C C C o.;.;...V V V V V V V V V V n D . :.",
":.. I A C C C C C C V C V V o.;.;...V V V V n V M V n n n D . :.",
":.. F C C C C V C Q ' Z V V o.;.;...V n Z ) W n n V n n n S   :.",
":.. P V C C V V ^ ;.;.@.V V o.;.;.o.V n @.;.;.~ n n n M n S . :.",
":.. P Z C Z Z P =.;.;.$.Z Z o.;.;...Z Z %.;.;.*.G B M M B S   :.",
":.. L Z Z Z Z } ;.;.;.^ B Z o.;.;.@.B B ~ ;.;.;.] M N B B S . :.",
":.. L Z Z Z Z &.;.;.o.Z B Z ..;.;. .i 1 i  .;.;.&.G N N N S   :.",
":.. L D Z Z W ;.;.;.Q B H B ..;.;.] < < < s ;.;.;.R N N b m . :.",
":.. D Z H G / ;.;.-.K G B K ..;.;.] < < , , -.;.;.T f p # k   :.",
":.. z 2 B K ) ;.;.*.K K K g ` ;.;.` , , , ; &.;.;.J # # # f   :.",
":.. z < < d / ;.;.;.K M u < p #.$.s , # # ; -.;.;.y # @ # k . :.",
":.. V < < < a -.;.;.J # < # , , # , # # # v ;.;.;.> @ # @ j   :.",
":.  z < < < , +.;.;.+.; # # # # # # $ # # +.;.;.O.@ @ @ @ t . :.",
":.. z , , , , J ;.;.;.( # ; # # @ # $ @ ( ;.;.;.v @ @ @ @ t . :.",
":.  l # , # , # +.;.;.;.| 8 # # # @ 8 | ;.;.;.O.@ @ + @ @ t   :.",
":.. z # # # # # 8 &.;.;.;.-.O._ _ O.-.;.;.;.&.5 + @ @ + + t   :.",
":.. k , # # @ # # 8 #.;.;.;.;.;.;.;.;.;.;.#.7 + + @ + + + r   :.",
":.:.h ; @ # @ @ @ @ - ! -.;.;.;.;.;.;.-.Y - + + + + + + + q :.:.",
":.:.3 w @ # @ @ @ @ @ @ - c ( [ [ ( x % + + + + + + O O 9 & :.:.",
":.:.  r : @ @ @ @ @ + @ + + + + + O + + + + O + O O O * q   :.:.",
":.:.:.  r 0 @ @ @ + + + + + + + + + O O O + O O O O 6 q   :.:.:.",
":.:.:.:.  = r h t t t t h r r r r r r r e h e e e q o   :.:.:.:.",
":.:.:.:.:.:.:.          .                         :.:.:.:.:.:.:.",
":.:.:.:.:.:.:.:.:.:.:.:.:.:.:.:.:.:.:.:.:.:.:.:.:.:.:.:.:.:.:.:."
};
